<svg width="47" height="49" viewBox="0 0 47 49" fill="none" xmlns="http://www.w3.org/2000/svg">
<g clip-path="url(#clip0_99_2212)">
<path d="M46.6664 19.7664C46.6664 19.7664 46.9829 23.1484 46.9829 24.2678C46.9829 25.4499 46.6664 28.974 46.6664 28.974C46.6658 28.9791 46.6651 28.9843 46.6645 28.9894C45.9235 34.272 43.8542 39.0292 40.0764 42.4487L32.314 36.5722C32.904 36.181 33.4639 35.7478 33.9904 35.2765C35.8633 33.6 36.7705 31.4374 37.1891 28.9894H24.0874V19.7664H46.6664Z" fill="#2682FA"/>
<path d="M40.1853 6.32518L33.2794 13.1597C30.7883 11.072 27.745 9.5407 24.2605 9.5407C17.8593 9.5407 12.4173 13.6742 10.4288 19.4326L2.54639 13.465C6.51554 5.51242 14.7055 0 24.0872 0C30.2258 0 35.9311 2.49185 40.1699 6.31162C40.1751 6.31614 40.1802 6.32066 40.1847 6.32518H40.1853Z" fill="#E94335"/>
<path d="M40.076 42.4486C40.051 42.4719 40.0247 42.4951 39.9996 42.5177C35.7679 46.3052 30.0632 48.3645 23.9535 48.3645C14.5667 48.3645 6.44027 42.9328 2.51221 35.0228L10.4081 29.0449C12.3805 34.8336 17.8373 38.9949 24.2604 38.9949C27.235 38.9949 30.0035 38.104 32.3136 36.5715L40.076 42.448V42.4486Z" fill="#34A753"/>
<path d="M10.4083 29.045L2.51234 35.0229C0.90465 31.7854 0 28.1328 0 24.2679C0 20.4029 0.918133 16.7264 2.54637 13.4651L10.4288 19.4326C9.90556 20.9471 9.62113 22.5739 9.62113 24.2679C9.62113 25.9618 9.8985 27.5466 10.4083 29.045Z" fill="#FFBB00"/>
</g>
<defs>
<clipPath id="clip0_99_2212">
<rect width="46.9827" height="48.3646" fill="white"/>
</clipPath>
</defs>
</svg>
