<svg width="182" height="141" viewBox="0 0 182 141" fill="none" xmlns="http://www.w3.org/2000/svg">
<g clip-path="url(#clip0_325_376)">
<path d="M88.7209 140.692C127.572 140.692 159.067 109.197 159.067 70.3461C159.067 31.495 127.572 0 88.7209 0C49.8698 0 18.3748 31.495 18.3748 70.3461C18.3748 109.197 49.8698 140.692 88.7209 140.692Z" fill="#F5F5FE"/>
<path d="M115.333 105.124C110.713 106.759 105.142 106.592 100.938 103.896C96.8059 101.245 93.0416 99.3318 87.9581 99.4245C83.415 99.5073 79.6586 101.963 75.2591 102.486C71.77 102.901 68.2241 101.379 65.6953 98.9389C63.2263 96.5577 61.587 92.926 62.6609 89.6682C63.2233 87.9621 64.4518 86.5551 65.1529 84.9018C66.7693 81.0876 62.5124 78.7872 63.5714 74.7726C64.4718 71.3583 68.2181 68.9232 68.1623 65.3922C68.1214 62.8076 66.1211 60.8053 65.4161 58.4141C64.7051 56.0019 64.8627 53.2996 66.1161 51.0958C67.0375 49.4764 68.5173 48.1512 70.2324 47.4203C71.773 46.7642 73.4932 46.7512 74.6848 45.406C76.8077 43.0068 77.5865 40.4072 80.4983 38.6532C82.9642 37.1684 86.22 37.0737 89.049 37.333C95.3351 37.9093 101.436 41.2269 104.976 46.5109C106.23 48.3836 107.136 50.3001 107.167 52.5258C107.202 54.9589 107.201 57.4059 108.692 59.475C109.944 61.2121 111.953 62.2282 113.945 63.012C115.938 63.7958 118.026 64.43 119.774 65.6645C121.523 66.8989 122.912 68.9132 122.707 71.0442C122.537 72.8281 121.302 74.3777 121.138 76.1616C120.839 79.4054 123.965 81.7627 125.891 84.3892C128.589 88.0678 129.036 93.269 127.006 97.3534C124.669 102.056 120.421 103.117 115.97 104.887C115.76 104.971 115.548 105.051 115.334 105.126L115.333 105.124Z" fill="#0B2D4E"/>
<path d="M81.7447 44.4689C83.2723 43.5764 85.0483 43.1676 86.8123 43.0968C88.5833 43.029 90.3572 43.2563 92.0763 43.6841C95.5235 44.5517 98.6636 46.6038 100.853 49.4258C101.935 50.8448 102.773 52.4592 103.27 54.1813C103.769 55.9084 103.871 57.7153 103.85 59.4822C103.832 61.2532 103.706 63.0142 103.764 64.7572C103.801 65.6218 103.908 66.4863 104.171 67.293C104.43 68.0968 104.879 68.8386 105.543 69.3233C106.198 69.8209 107.041 70.0313 107.891 70.133C108.745 70.2337 109.636 70.2397 110.526 70.3583C112.287 70.5956 114.077 71.0145 115.61 72.0236C116.364 72.5272 117.042 73.2292 117.372 74.1146C117.714 75.0001 117.646 75.9684 117.416 76.8509C117.15 77.7433 116.645 78.4922 116.292 79.273C115.939 80.0548 115.712 80.8954 115.635 81.7519C115.473 83.4751 115.915 85.2031 116.528 86.8375C117.13 88.4858 117.853 90.1102 118.275 91.8413C118.481 92.7048 118.607 93.5943 118.593 94.4868C118.582 95.3782 118.419 96.2657 118.129 97.1033C117.55 98.7825 116.458 100.271 115.046 101.326C116.433 100.237 117.48 98.7317 118.013 97.0634C118.57 95.3932 118.496 93.5803 118.036 91.9001C117.595 90.2049 116.86 88.6005 116.23 86.9482C115.591 85.3068 115.103 83.5299 115.249 81.718C115.318 80.8176 115.545 79.9291 115.907 79.0995C116.275 78.2738 116.765 77.5359 116.999 76.7282C117.203 75.9125 117.258 75.045 116.955 74.2732C116.663 73.4994 116.06 72.8712 115.356 72.4045C113.926 71.4672 112.18 71.0563 110.468 70.836C109.609 70.7243 108.732 70.7233 107.834 70.6226C106.947 70.5199 106.007 70.3025 105.243 69.7271C104.475 69.1627 103.978 68.3131 103.703 67.4456C103.423 66.5721 103.318 65.6687 103.283 64.7752C103.232 62.9913 103.367 61.2303 103.391 59.4762C103.419 57.7262 103.325 55.9702 102.85 54.299C102.37 52.6317 101.579 51.0572 100.544 49.6581C98.4472 46.879 95.3939 44.8239 92.0135 43.9205C90.3253 43.4588 88.5713 43.1915 86.8153 43.2174C85.0653 43.2474 83.2923 43.6103 81.7447 44.4669V44.4689Z" fill="#73B8D4"/>
<path d="M103.982 83.5708C104.145 87.5574 103.222 90.5519 99.5751 92.5233C96.6713 94.0939 93.1942 94.6094 89.9893 94.6882C84.6146 94.8208 78.6266 93.4347 74.606 89.6595C73.8761 88.9744 73.1761 88.1348 73.1232 87.1346C73.0754 86.2262 73.5749 85.3697 73.6188 84.4612C73.6926 82.9286 72.501 81.6592 71.9685 80.2203C71.2645 78.3197 71.7431 76.1977 72.3753 74.2722C73.0076 72.3467 73.7983 70.4022 73.7036 68.3779C73.5809 65.7524 72.0024 63.4589 70.739 61.1535C69.4756 58.848 68.4814 56.043 69.5604 53.6468C70.2713 52.0673 71.9685 50.8527 73.7016 50.6603C75.5334 50.4569 77.1787 52.5499 78.3524 53.7026C79.9309 55.2542 81.6899 56.6224 83.5825 57.7701C86.1991 59.3586 89.0729 60.5293 91.5339 62.3491C93.0237 63.45 94.6211 64.9617 95.3321 66.7157C96.1338 68.6921 94.7298 70.6056 96.427 72.4234C97.5219 73.5961 99.2021 73.995 100.526 74.9024C103.359 76.8439 103.851 80.4217 103.981 83.5698L103.982 83.5708Z" fill="#061F33"/>
<path d="M74.3009 105.878C78.0741 100.063 80.4225 92.9261 77.1438 86.3597C76.8117 85.6946 76.4119 84.9677 75.7059 84.7333C74.1882 84.2288 72.129 84.7712 70.8088 85.546C66.2298 88.2324 63.4278 93.288 60.8561 97.7853C58.1837 102.458 55.8633 107.322 53.1769 111.988C52.089 113.878 50.9911 115.792 50.4068 117.893C49.8962 119.733 49.8394 121.841 50.5374 123.641C53.5518 131.426 61.8413 121.89 64.3651 119.009C67.9659 114.898 71.3283 110.461 74.3009 105.876V105.878Z" fill="#26A8D1"/>
<path d="M108.447 99.3728C109.532 94.7799 110.094 90.0802 107.636 86.9521C106.526 85.5391 104.548 84.5549 102.93 83.8559C99.7725 82.4918 96.5447 80.657 93.1653 80.0627C89.6024 79.4355 85.6396 79.0496 82.0887 79.946C79.8331 80.5154 77.7231 81.5694 75.7059 82.7072C73.9558 83.6944 71.8089 84.5439 70.9594 86.3797C68.9002 90.8301 67.0734 95.4719 65.5577 100.134C64.2893 104.035 62.8973 108.123 64.8956 112.076C65.5428 113.357 66.4831 114.453 67.224 115.676C68.0486 117.04 68.3568 118.32 68.4645 119.892C68.7118 123.48 68.615 127.079 68.6051 130.672C68.6021 131.707 68.616 132.784 69.0687 133.714C69.9622 135.55 72.3913 135.575 74.1413 135.572C79.9089 135.562 85.6765 135.552 91.4432 135.542C93.8423 135.538 95.6761 135.831 97.9287 136.295C99.8243 136.685 101.452 135.727 102.362 133.964C103.223 132.293 103.288 130.344 103.381 128.467C103.74 121.166 104.776 113.899 106.471 106.787C106.951 104.773 107.793 102.14 108.447 99.3718V99.3728Z" fill="#3DC8E8"/>
<mask id="mask0_325_376" style="mask-type:luminance" maskUnits="userSpaceOnUse" x="63" y="79" width="47" height="58">
<path d="M108.447 99.3728C109.532 94.7799 110.094 90.0802 107.636 86.9521C106.526 85.5391 104.548 84.5549 102.93 83.8559C99.7725 82.4918 96.5447 80.657 93.1653 80.0627C89.6024 79.4355 85.6396 79.0496 82.0887 79.946C79.8331 80.5154 77.7231 81.5694 75.7059 82.7072C73.9558 83.6944 71.8089 84.5439 70.9594 86.3797C68.9002 90.8301 67.0734 95.4719 65.5577 100.134C64.2893 104.035 62.8973 108.123 64.8956 112.076C65.5428 113.357 66.4831 114.453 67.224 115.676C68.0486 117.04 68.3568 118.32 68.4645 119.892C68.7118 123.48 68.615 127.079 68.6051 130.672C68.6021 131.707 68.616 132.784 69.0687 133.714C69.9622 135.55 72.3913 135.575 74.1413 135.572C79.9089 135.562 85.6765 135.552 91.4432 135.542C93.8423 135.538 95.6761 135.831 97.9287 136.295C99.8243 136.685 101.452 135.727 102.362 133.964C103.223 132.293 103.288 130.344 103.381 128.467C103.74 121.166 104.776 113.899 106.471 106.787C106.951 104.773 107.793 102.14 108.447 99.3718V99.3728Z" fill="white"/>
</mask>
<g mask="url(#mask0_325_376)">
<path d="M95.0888 86.0118C96.446 83.7283 96.7551 80.8744 94.9761 78.6736C94.1624 77.6675 92.7245 77.5548 91.495 77.5319C89.0739 77.487 86.6478 77.7433 84.2905 78.2957C82.0439 78.8212 79.7524 79.7117 78.7792 81.9802C78.0562 83.6654 78.3085 85.6159 79.2608 87.1575C80.1263 88.5585 81.5613 89.5946 83.1627 89.9765C85.7484 90.5918 88.7758 90.509 91.2427 89.4739C92.7883 88.8248 94.1754 87.5474 95.0878 86.0118H95.0888Z" fill="#26A8D1"/>
<path d="M110.489 120.43C110.471 116.908 110.453 113.386 110.435 109.864C110.429 108.638 111.225 101.175 109.317 101.26C109.112 101.268 108.923 101.375 108.756 101.495C107.807 102.174 107.319 103.31 106.876 104.39C105.486 107.773 104.319 113.189 101.426 115.557C98.4842 117.964 93.962 118.979 90.3064 119.558C86.0375 120.233 81.6989 120.282 77.3861 120.545C74.596 120.714 71.5178 121.116 69.685 123.227C68.3757 124.734 67.7096 126.993 67.0106 128.835C66.3993 130.445 65.9137 132.356 67.1532 133.813C67.6817 134.435 68.4166 134.843 69.1545 135.191C71.8468 136.46 74.7885 137.1 77.7241 137.591C85.9388 138.966 94.312 139.252 102.631 138.856C104.41 138.771 106.339 138.593 107.651 137.39C108.627 136.494 109.087 135.175 109.415 133.892C110.53 129.517 110.514 124.945 110.491 120.432L110.489 120.43Z" fill="#26A8D1"/>
</g>
<path d="M71.1548 60.2828C68.0077 63.5205 70.8626 71.4321 75.8814 70.2873C81.274 69.0568 80.4633 60.6527 75.5862 59.2726C73.6846 58.7342 72.1679 59.2397 71.1548 60.2818V60.2828Z" fill="#9B87FF"/>
<path d="M114.114 104.593C117.268 104.995 120.59 104.718 123.408 103.244C126.995 101.367 128.79 97.9246 128.864 93.9649C128.918 91.097 128.362 88.1065 126.631 85.819C124.749 83.3321 121.593 81.8024 120.422 78.9117C119.664 77.039 119.845 74.4902 121.345 73.0413C122.299 72.119 123.046 71.0789 122.924 69.6969C122.743 67.6626 121.255 65.7092 119.593 64.6103C117.156 62.9999 114.125 62.4106 111.273 62.0476C109.341 61.8023 107.417 61.2598 106.819 59.1797C106.497 58.0579 106.561 56.8733 106.5 55.7206C106.372 53.2616 106.191 50.8015 105.824 48.3645C105.401 45.5555 103.577 42.8382 101.542 40.9027C101.25 40.6245 100.947 40.3582 100.634 40.1049C95.389 35.856 85.6805 34.3513 79.896 38.2891C77.9236 39.6313 76.5415 41.6865 76.1018 44.0358C75.8076 45.6053 75.3828 45.9434 73.8492 46.419C71.0631 47.2835 67.9011 47.8978 65.6884 49.941C63.9573 51.5395 63.1615 53.9606 63.3919 56.283C63.686 59.2475 65.7592 60.6665 67.2429 63.0168C68.7586 65.416 67.567 68.4344 65.807 70.4138C64.4519 71.9385 62.5283 73.0523 61.7625 74.9429C61.0575 76.682 61.5242 78.6933 62.3758 80.3665C62.7208 81.0446 63.1266 81.6918 63.4308 82.3878C64.3581 84.5078 64.2624 87.0495 63.1785 89.0937" stroke="#0B2D4E" stroke-width="4" stroke-miterlimit="10"/>
<path d="M123.054 109.181C124.019 110.921 124.978 112.664 125.919 114.418C127.83 117.978 131.378 125.887 125.698 127.842C122.837 128.826 121.2 127.864 119.308 125.778C112.152 117.892 106.051 109.052 101.215 99.566C99.4155 96.035 94.6371 86.8351 100.442 84.7331C102.274 84.069 104.386 84.2236 106.103 85.1469C106.888 85.5687 107.584 86.1381 108.249 86.7314C112.438 90.4668 115.421 95.2871 118.074 100.175C119.715 103.197 121.393 106.184 123.054 109.18V109.181Z" fill="#3DC8E8"/>
<path d="M90.1708 87.1761C91.8989 86.6216 93.3228 85.5477 93.8553 83.8396C94.3389 82.29 93.5761 80.5459 93.4405 78.9824C93.3099 77.4836 93.2929 75.9759 93.3916 74.4752C93.4824 73.0881 93.615 71.6422 93.4016 70.2592C93.2799 69.4684 92.8462 69.604 92.0464 69.2899C91.2477 68.9758 90.3503 68.9728 89.4807 68.9748C87.7018 68.9788 83.064 68.8502 81.9651 70.4107C81.4605 71.1277 81.4206 72.0291 81.3967 72.8827C81.3678 73.9128 81.1853 75.247 81.0168 76.6839C80.942 77.3241 80.9879 77.9613 80.8901 78.5965C80.7805 79.3084 80.5102 79.9905 80.2739 80.6716C79.3794 83.2492 80.2171 85.7003 83.0041 86.8809C85.0045 87.7275 87.8593 87.916 90.1698 87.1751L90.1708 87.1761Z" fill="#F8A17A"/>
<path d="M93.3936 70.2592C93.272 69.4684 92.8382 69.604 92.0385 69.2899C91.2397 68.9758 90.3423 68.9728 89.4727 68.9748C87.6938 68.9788 83.056 68.8502 81.9571 70.4107C81.4525 71.1277 81.4127 72.0291 81.3887 72.8827C81.3598 73.9128 81.1773 75.247 81.0088 76.6839C80.934 77.3241 80.9799 77.9613 80.8822 78.5965C80.7984 79.1379 80.6219 79.6624 80.4384 80.1829C82.1625 80.8231 84.111 80.9657 85.9099 80.523C89.1507 79.7253 91.6047 77.708 93.3557 75.0854C93.3647 74.881 93.3707 74.6776 93.3836 74.4732C93.4744 73.0861 93.607 71.6402 93.3936 70.2572V70.2592Z" fill="#E5785C"/>
<path d="M95.9763 60.1031C95.9623 57.7278 95.6342 55.4742 95.023 53.6026C92.3855 45.5285 82.3141 43.5342 76.2493 49.3297C69.4865 55.7923 72.0742 71.2454 79.1979 76.673C81.1025 78.1239 83.6912 78.6344 86.0046 78.0142C93.0037 76.1375 96.0201 67.524 95.9763 60.1031Z" fill="#F8A17A"/>
<path d="M94.653 60.3025C97.7512 58.6083 98.7055 62.8982 98.172 65.0331C97.9517 65.9146 97.6036 66.7751 97.0562 67.5001C96.3193 68.4773 94.2103 70.0977 92.9957 69.0287C92.4443 68.5441 92.3875 67.7195 92.3705 66.9855C92.3246 65.0171 92.552 61.4503 94.652 60.3015L94.653 60.3025Z" fill="#F8A17A"/>
<path d="M84.5597 74.4345C83.7999 74.4345 83.035 74.3787 82.2692 74.266L82.4058 73.3366C85.1869 73.7465 87.9601 73.3596 90.426 72.2168C91.0961 71.9067 91.6635 71.5806 92.1611 71.2197C93.0665 70.5635 93.8443 69.707 94.4087 68.7417L95.2194 69.2164C94.5892 70.2933 93.7227 71.2486 92.7115 71.9805C92.1641 72.3774 91.5449 72.7334 90.8199 73.0694C88.8675 73.9738 86.7365 74.4355 84.5577 74.4355L84.5597 74.4345Z" fill="#8070F2"/>
<path d="M79.5539 72.5957C80.6867 71.6234 83.2066 71.7062 84.0372 72.7163C84.6525 73.4642 84.465 74.4145 83.7869 75.0467C82.9852 75.7946 81.993 75.7517 80.9929 75.5263C79.7404 75.2441 78.1878 73.7683 79.5539 72.5967V72.5957Z" fill="#8070F2"/>
<path d="M95.9922 53.9357C93.2161 45.4359 82.6122 43.3359 76.2274 49.4375C74.8164 50.7857 73.7983 52.5088 73.1212 54.4433C73.2638 54.6637 73.4224 54.884 73.6138 55.1054C74.4893 56.1205 75.6989 56.7827 76.9154 57.3461C80.4703 58.9894 84.3014 59.9536 88.1505 60.6746C88.4337 60.7274 88.7189 60.7803 89.0041 60.8361C90.0641 61.0455 91.1151 61.3068 92.0405 61.8513C94.656 63.3929 93.5312 66.7842 95.4478 68.271C95.6213 68.4056 95.7968 68.4924 95.9713 68.5542C96.6793 66.0224 97.0113 63.335 96.9964 60.7803C96.9814 58.2794 96.6364 55.9071 95.9932 53.9367L95.9922 53.9357Z" fill="#E5785C"/>
<path d="M89.2783 59.8649C90.2914 60.2398 91.2876 60.6656 92.1142 61.3516C94.4506 63.2911 92.7993 66.4591 94.4536 68.2321C95.9194 69.8026 98.1461 67.7275 98.7294 66.2766C99.8044 63.6042 99.7406 60.6297 99.6618 57.7499C99.6179 56.1444 99.5701 54.5151 99.0994 52.9794C98.5858 51.3042 97.5857 49.8094 96.3941 48.5241C92.9548 44.8136 87.7656 42.8841 82.7409 43.2012C78.811 43.4485 71.9186 46.7511 74.9989 51.7529C75.7019 52.8947 76.7898 53.7413 77.9016 54.4911C81.1484 56.6799 84.7771 58.2435 88.4616 59.5687C88.7328 59.6664 89.0061 59.7631 89.2783 59.8649Z" fill="#0B2D4E"/>
<path d="M95.9543 59.0819C91.5808 60.2037 89.8906 68.4433 94.7697 70.0836C100.013 71.8466 103.703 64.2522 100.262 60.5318C98.9199 59.0809 97.3623 58.7209 95.9543 59.0819Z" fill="#9B87FF"/>
<path d="M97.3883 60.14C94.3688 60.6256 92.5091 67.0394 95.6203 68.8053C98.9638 70.7019 102.102 64.9902 100.134 61.7005C99.3676 60.4172 98.3595 59.9844 97.3873 60.141L97.3883 60.14Z" fill="#8070F2"/>
<path d="M97.9975 59.6585L96.8308 59.5238C97.6226 52.6853 97.2846 43.9481 91.1859 41.158C88.2971 39.8368 80.0256 38.3699 76.3849 43.283C75.9472 43.7746 75.654 44.1874 75.654 44.1874C77.9116 37.2212 88.5574 38.6641 91.6745 40.0901C98.4153 43.1743 98.8342 52.434 97.9975 59.6594V59.6585Z" fill="#9B87FF"/>
<path d="M76.1067 124.215H52.1229V128.91H76.1067V124.215Z" fill="#B8D1CE"/>
<path d="M56.2382 124.671L50.1854 93.8551C50.0258 93.0414 49.3118 92.4541 48.4822 92.4541H8.24355C7.66121 92.4541 7.16163 92.7423 6.84852 93.1701L6.84353 93.1651L4.98581 95.3618L6.63413 94.9999L12.5932 125.34C12.7527 126.153 13.4667 126.741 14.2964 126.741H54.535C55.6279 126.741 56.4486 125.743 56.2382 124.671Z" fill="#B8D1CE"/>
<path d="M12.4566 128.911H52.6952C53.7881 128.911 54.6088 127.912 54.3984 126.84L48.3456 96.025C48.1861 95.2114 47.4721 94.624 46.6424 94.624H6.40379C5.31089 94.624 4.49023 95.6222 4.70063 96.6941L10.7534 127.51C10.913 128.323 11.6269 128.911 12.4566 128.911Z" fill="white"/>
<path d="M25.1136 111.004C25.4846 113.083 27.4709 114.767 29.549 114.767C31.6271 114.767 32.9883 113.082 32.5864 111.004C32.1855 108.924 30.1992 107.24 28.151 107.24C26.1028 107.24 24.7417 108.925 25.1136 111.004Z" fill="#B8D1CE"/>
<path d="M140.612 110.513C141.056 109.597 140.976 108.632 140.697 107.759C140.428 106.865 139.948 106.096 139.429 105.255C138.904 104.425 138.368 103.521 138.04 102.432C137.707 101.331 137.802 100.097 138.108 99.0527C138.769 96.9227 140.122 95.3542 141.055 93.7487C141.523 92.9361 141.905 92.1114 142.056 91.198C142.226 90.2936 142.168 89.3303 141.723 88.4219C142.493 89.096 142.867 90.1879 142.917 91.2459C142.965 92.3148 142.696 93.3987 142.286 94.352C141.476 96.2855 140.263 97.8561 139.791 99.5532C139.523 100.394 139.457 101.208 139.647 102.022C139.806 102.858 140.242 103.7 140.635 104.615C141.052 105.507 141.451 106.539 141.54 107.6C141.63 108.645 141.391 109.827 140.612 110.512V110.513Z" fill="white"/>
<path d="M135.046 111.684H147.004V126.319C147.004 127.695 145.887 128.812 144.511 128.812H137.539C136.163 128.812 135.046 127.695 135.046 126.319V111.684Z" fill="#9B87FF"/>
<path d="M147.84 115.558C144.972 115.558 142.648 117.916 142.648 120.826C142.648 123.735 144.972 126.094 147.84 126.094C150.708 126.094 153.032 123.735 153.032 120.826C153.032 117.916 150.708 115.558 147.84 115.558ZM147.84 124.215C145.995 124.215 144.499 122.697 144.499 120.826C144.499 118.954 145.995 117.436 147.84 117.436C149.685 117.436 151.18 118.954 151.18 120.826C151.18 122.697 149.685 124.215 147.84 124.215Z" fill="#9B87FF"/>
<path opacity="0.2" d="M136.835 122.31C136.479 122.31 136.189 122.019 136.189 121.664V113.328C136.189 112.972 136.48 112.682 136.835 112.682C137.191 112.682 137.481 112.973 137.481 113.328V121.664C137.481 122.02 137.19 122.31 136.835 122.31Z" fill="white"/>
<path d="M144.243 111.684V125.784C144.243 127.456 142.887 128.812 141.215 128.812H143.976C145.648 128.812 147.004 127.456 147.004 125.784V111.684H144.243Z" fill="#8070F2"/>
<path d="M114.851 52.0972L155.666 52.0972C157.924 52.0972 159.754 50.2667 159.754 48.0088V26.4361C159.754 24.1781 157.924 22.3477 155.666 22.3477L114.851 22.3477C112.593 22.3477 110.762 24.1781 110.762 26.4361V48.0088C110.762 50.2667 112.593 52.0972 114.851 52.0972Z" fill="#FFC73C"/>
<path d="M117.211 59.928V46.2568L127.918 52.0972L117.211 59.928Z" fill="#FFC73C"/>
<path d="M141.58 35.9658H119.122C118.626 35.9658 118.224 36.3676 118.224 36.8633V37.664C118.224 38.1596 118.626 38.5614 119.122 38.5614H141.58C142.075 38.5614 142.477 38.1596 142.477 37.664V36.8633C142.477 36.3676 142.075 35.9658 141.58 35.9658Z" fill="white"/>
<path d="M151.395 35.9658H145.24C144.745 35.9658 144.343 36.3676 144.343 36.8633V37.664C144.343 38.1596 144.745 38.5614 145.24 38.5614H151.395C151.89 38.5614 152.292 38.1596 152.292 37.664V36.8633C152.292 36.3676 151.89 35.9658 151.395 35.9658Z" fill="white"/>
<path d="M128.937 32.6685H151.395C151.89 32.6685 152.292 32.2667 152.292 31.771V30.9703C152.292 30.4746 151.89 30.0728 151.395 30.0728L128.937 30.0728C128.441 30.0728 128.039 30.4746 128.039 30.9703V31.771C128.039 32.2667 128.441 32.6685 128.937 32.6685Z" fill="white"/>
<path d="M119.123 32.6685H125.277C125.773 32.6685 126.174 32.2667 126.174 31.771V30.9703C126.174 30.4746 125.773 30.0728 125.277 30.0728H119.123C118.627 30.0728 118.225 30.4746 118.225 30.9703V31.771C118.225 32.2667 118.627 32.6685 119.123 32.6685Z" fill="white"/>
<path d="M134.36 41.3545H119.122C118.626 41.3545 118.224 41.7563 118.224 42.2519V43.0527C118.224 43.5483 118.626 43.9501 119.122 43.9501H134.36C134.856 43.9501 135.258 43.5483 135.258 43.0527V42.2519C135.258 41.7563 134.856 41.3545 134.36 41.3545Z" fill="white"/>
<path d="M157.742 60.5251C156.645 60.5191 155.58 60.3775 154.828 59.3016C153.353 57.1886 151.101 55.292 148.576 57.4409C147.119 58.6804 148.215 61.2291 146.961 62.4556C145.853 63.5395 144.444 63.3611 143.876 65.1599C143.043 67.8074 145.671 70.1268 146.515 72.4163C147.223 74.3379 145.63 75.0698 144.914 76.5665C144.363 77.7202 144.646 78.9567 145.247 80.0606C146.307 82.0061 148.658 83.5726 148.113 86.0925C147.658 88.1955 147.237 90.0692 149.091 91.6626C150.363 92.7555 152.723 93.7507 152.544 95.7729C152.48 96.4889 151.985 97.0982 151.849 97.8032C151.634 98.92 152.357 100.006 153.197 100.772C155.107 102.515 156.785 104.159 158.216 106.353C158.828 107.29 161.277 109.406 160.297 110.688C162.076 108.358 163.956 106.1 165.573 103.652C166.902 101.637 168.905 98.6917 167.542 96.2117C167.118 95.4399 166.328 94.8655 166.113 94.0119C165.723 92.4703 167.237 91.0414 167.8 89.7301C168.684 87.671 168.035 85.2798 166.478 83.7352C165.741 83.0042 164.942 82.1995 164.834 81.1674C164.716 80.0407 165.422 78.9896 165.743 77.9496C166.038 76.9913 166.223 75.9722 166.33 74.976C166.406 74.273 166.436 73.5541 166.271 72.866C165.956 71.5588 164.779 70.8318 163.907 69.9035C161.832 67.6947 162.923 65.0971 162.017 62.5304C161.203 60.226 159.435 60.5361 157.743 60.5261L157.742 60.5251Z" fill="#3DC8E8"/>
<mask id="mask1_325_376" style="mask-type:luminance" maskUnits="userSpaceOnUse" x="143" y="56" width="26" height="55">
<path d="M157.742 60.5251C156.645 60.5191 155.58 60.3775 154.828 59.3016C153.353 57.1886 151.101 55.292 148.576 57.4409C147.119 58.6804 148.215 61.2291 146.961 62.4556C145.853 63.5395 144.444 63.3611 143.876 65.1599C143.043 67.8074 145.671 70.1268 146.515 72.4163C147.223 74.3379 145.63 75.0698 144.914 76.5665C144.363 77.7202 144.646 78.9567 145.247 80.0606C146.307 82.0061 148.658 83.5726 148.113 86.0925C147.658 88.1955 147.237 90.0692 149.091 91.6626C150.363 92.7555 152.723 93.7507 152.544 95.7729C152.48 96.4889 151.985 97.0982 151.849 97.8032C151.634 98.92 152.357 100.006 153.197 100.772C155.107 102.515 156.785 104.159 158.216 106.353C158.828 107.29 161.277 109.406 160.297 110.688C162.076 108.358 163.956 106.1 165.573 103.652C166.902 101.637 168.905 98.6917 167.542 96.2117C167.118 95.4399 166.328 94.8655 166.113 94.0119C165.723 92.4703 167.237 91.0414 167.8 89.7301C168.684 87.671 168.035 85.2798 166.478 83.7352C165.741 83.0042 164.942 82.1995 164.834 81.1674C164.716 80.0407 165.422 78.9896 165.743 77.9496C166.038 76.9913 166.223 75.9722 166.33 74.976C166.406 74.273 166.436 73.5541 166.271 72.866C165.956 71.5588 164.779 70.8318 163.907 69.9035C161.832 67.6947 162.923 65.0971 162.017 62.5304C161.203 60.226 159.435 60.5361 157.743 60.5261L157.742 60.5251Z" fill="white"/>
</mask>
<g mask="url(#mask1_325_376)">
<path d="M160.518 113.313C161.289 104.482 160.581 95.5804 158.949 86.8831C157.393 78.5857 155.351 70.2603 152.253 62.3957C151.23 59.7971 150.082 57.2463 148.775 54.7773" stroke="#26A8D1" stroke-width="5" stroke-miterlimit="10"/>
<path d="M141.804 66.6187C146.151 68.1533 150.297 70.2553 154.104 72.8549C155.07 73.5141 155.608 73.7165 156.413 74.5641" stroke="#26A8D1" stroke-width="5" stroke-miterlimit="10"/>
<path d="M158.474 84.0261C154.302 81.3298 149.57 79.504 144.669 78.6973" stroke="#26A8D1" stroke-width="5" stroke-miterlimit="10"/>
<path d="M160.124 95.4187C156.241 92.0543 151.508 89.6781 146.49 88.5752" stroke="#26A8D1" stroke-width="5" stroke-miterlimit="10"/>
<path d="M156.197 74.274C156.5 69.6013 157.663 64.9864 159.61 60.7275" stroke="#26A8D1" stroke-width="5" stroke-miterlimit="10"/>
<path d="M158.421 83.6412C160.393 79.4202 163.243 75.612 166.737 72.5288" stroke="#26A8D1" stroke-width="5" stroke-miterlimit="10"/>
<path d="M160.382 95.7427C160.654 94.4384 161.133 93.178 161.793 92.0213C162.562 90.6751 163.567 89.4815 164.591 88.3188C165.328 87.4812 166.079 86.6545 166.841 85.8389" stroke="#26A8D1" stroke-width="5" stroke-miterlimit="10"/>
</g>
<path d="M171.216 76.6225C172.013 76.7701 172.805 76.8149 173.5 76.1379C174.862 74.8096 176.759 73.7457 178.293 75.6532C179.178 76.7541 178.031 78.4513 178.771 79.5143C179.425 80.4546 180.472 80.5194 180.635 81.9035C180.873 83.9397 178.645 85.2579 177.716 86.8026C176.936 88.0979 177.99 88.8497 178.302 90.0344C178.543 90.9478 178.166 91.8053 177.577 92.5223C176.539 93.7867 174.618 94.5974 174.664 96.501C174.703 98.0895 174.749 99.5065 173.183 100.406C172.109 101.022 170.259 101.418 170.111 102.91C170.058 103.437 170.333 103.949 170.333 104.479C170.334 105.319 169.66 106.007 168.944 106.447C167.317 107.447 165.872 108.407 164.529 109.8C163.956 110.396 161.887 111.592 162.419 112.656C161.451 110.721 160.4 108.822 159.568 106.822C158.883 105.176 157.836 102.763 159.169 101.153C159.584 100.652 160.235 100.344 160.51 99.7548C161.006 98.6908 160.106 97.4443 159.879 96.4152C159.523 94.7998 160.324 93.1545 161.668 92.2491C162.303 91.8203 162.994 91.3476 163.216 90.6137C163.458 89.812 163.091 88.9524 163.002 88.1537C162.92 87.4178 162.928 86.653 162.987 85.9161C163.029 85.3956 163.108 84.8701 163.322 84.3934C163.731 83.488 164.686 83.124 165.447 82.5716C167.258 81.2563 166.826 79.2211 167.839 77.485C168.748 75.9265 169.988 76.3961 171.216 76.6225Z" fill="#26A8D1"/>
<mask id="mask2_325_376" style="mask-type:luminance" maskUnits="userSpaceOnUse" x="158" y="74" width="23" height="39">
<path d="M171.216 76.6225C172.013 76.7701 172.805 76.8149 173.5 76.1379C174.862 74.8096 176.759 73.7457 178.293 75.6532C179.178 76.7541 178.031 78.4513 178.771 79.5143C179.425 80.4546 180.472 80.5194 180.635 81.9035C180.873 83.9397 178.645 85.2579 177.716 86.8026C176.936 88.0979 177.99 88.8497 178.302 90.0344C178.543 90.9478 178.166 91.8053 177.577 92.5223C176.539 93.7867 174.618 94.5974 174.664 96.501C174.703 98.0895 174.749 99.5065 173.183 100.406C172.109 101.022 170.259 101.418 170.111 102.91C170.058 103.437 170.333 103.949 170.333 104.479C170.334 105.319 169.66 106.007 168.944 106.447C167.317 107.447 165.872 108.407 164.529 109.8C163.956 110.396 161.887 111.592 162.419 112.656C161.451 110.721 160.4 108.822 159.568 106.822C158.883 105.176 157.836 102.763 159.169 101.153C159.584 100.652 160.235 100.344 160.51 99.7548C161.006 98.6908 160.106 97.4443 159.879 96.4152C159.523 94.7998 160.324 93.1545 161.668 92.2491C162.303 91.8203 162.994 91.3476 163.216 90.6137C163.458 89.812 163.091 88.9524 163.002 88.1537C162.92 87.4178 162.928 86.653 162.987 85.9161C163.029 85.3956 163.108 84.8701 163.322 84.3934C163.731 83.488 164.686 83.124 165.447 82.5716C167.258 81.2563 166.826 79.2211 167.839 77.485C168.748 75.9265 169.988 76.3961 171.216 76.6225Z" fill="white"/>
</mask>
<g mask="url(#mask2_325_376)">
<path d="M161.896 114.529C162.559 108.016 164.305 101.657 166.692 95.5737C168.97 89.7712 171.603 84.0145 174.939 78.7375C176.041 76.9945 177.227 75.3033 178.516 73.6929" stroke="#3DC8E8" stroke-width="5" stroke-miterlimit="10"/>
<path d="M181.934 83.2485C178.569 83.7601 175.27 84.7104 172.149 86.0695C171.357 86.4145 170.939 86.4863 170.237 86.9899" stroke="#3DC8E8" stroke-width="5" stroke-miterlimit="10"/>
<path d="M167.432 93.5676C170.832 92.1895 174.517 91.5194 178.184 91.6131" stroke="#3DC8E8" stroke-width="5" stroke-miterlimit="10"/>
<path d="M164.659 101.604C167.942 99.7 171.703 98.6321 175.496 98.5264" stroke="#3DC8E8" stroke-width="5" stroke-miterlimit="10"/>
<path d="M170.435 86.8085C170.861 83.3772 170.657 79.8682 169.834 76.5098" stroke="#3DC8E8" stroke-width="5" stroke-miterlimit="10"/>
<path d="M167.525 93.2963C166.678 89.9618 165.138 86.8047 163.031 84.0845" stroke="#3DC8E8" stroke-width="5" stroke-miterlimit="10"/>
<path d="M164.427 101.802C164.41 100.819 164.237 99.8377 163.918 98.9074C163.547 97.8245 162.983 96.8203 162.402 95.8341C161.983 95.1241 161.553 94.4211 161.113 93.7241" stroke="#3DC8E8" stroke-width="5" stroke-miterlimit="10"/>
</g>
<path d="M154.149 112.273H170.431L167.574 128.568H157.005L154.149 112.273Z" fill="#EFB126"/>
<path d="M152.156 112.273H172.424V107.699H152.156V112.273Z" fill="#FFC73C"/>
<path opacity="0.1" d="M170.052 114.434H154.528L154.149 112.273H170.431L170.052 114.434Z" fill="#231F20"/>
<path d="M95.1187 121.61C95.6073 121.527 96.0959 121.447 96.5865 121.369C98.9698 120.995 101.343 120.551 103.702 120.038C108.376 119.022 113.077 118.149 117.835 117.699C118.34 117.651 118.844 117.608 119.349 117.57C121.482 117.408 123.717 117.357 125.67 118.377C127.622 119.397 129.175 121.81 128.698 124.135C128.363 125.77 127.114 126.999 125.725 127.619C124.337 128.24 122.807 128.347 121.308 128.448C116.45 128.775 111.593 129.102 106.735 129.429C104.33 129.59 101.924 129.756 99.5202 129.923C97.2237 130.082 94.8924 130.406 92.5889 130.404C91.6147 130.403 90.5268 130.221 89.7091 129.571C88.5713 128.667 87.8863 126.744 87.7766 125.24C87.7197 124.459 87.8713 123.512 88.4696 123.028C88.7897 122.77 89.1965 122.69 89.5884 122.619C91.4342 122.279 93.272 121.925 95.1187 121.609V121.61Z" fill="#3DC8E8"/>
<path d="M89.6692 129.012C88.4945 129.255 87.5762 130.287 86.4075 130.632C85.5728 130.878 84.6804 130.746 83.8787 130.446C83.1417 130.17 82.3919 130.021 81.635 129.779C81.0457 129.591 80.249 129.193 79.6158 129.324C77.9555 129.67 76.2992 130.852 74.7945 131.619C74.4564 131.791 74.0855 131.969 73.7125 131.898C73.3396 131.827 73.0285 131.375 73.2409 131.06C72.8081 131.464 72.2347 132.273 71.5357 131.959C71.2505 131.83 71.078 131.452 71.2356 131.182C70.9953 131.445 70.743 131.718 70.4119 131.848C70.0809 131.979 69.6461 131.922 69.4507 131.624C69.3589 131.483 69.331 131.311 69.323 131.143C69.2941 130.567 69.4686 129.998 69.7089 129.473C70.8946 126.885 73.5749 124.967 75.8564 123.425C76.2603 123.153 76.6711 122.876 77.1368 122.734C77.5536 122.607 77.9954 122.593 78.4311 122.591C81.2601 122.578 84.0901 123.035 86.7714 123.938C87.3518 124.133 87.99 123.967 88.5683 123.858C88.9961 123.778 89.4438 123.698 89.8617 123.82C90.3293 123.957 90.6923 124.328 90.9775 124.723C91.502 125.449 91.9019 126.413 91.84 127.326C91.7922 128.02 91.7403 128.768 90.9236 128.914C90.5926 128.972 90.2525 128.937 89.9185 128.971C89.8347 128.98 89.753 128.993 89.6712 129.01L89.6692 129.012Z" fill="#F8A17A"/>
<path d="M175.703 134.606H3.18196C1.42495 134.606 0 133.248 0 131.573C0 129.898 1.42495 128.54 3.18196 128.54H175.703C177.46 128.54 178.885 129.898 178.885 131.573C178.885 133.248 177.46 134.606 175.703 134.606Z" fill="#DBCDFE"/>
<path d="M41.0703 26.374H34.6256C31.8854 26.374 29.6438 28.6157 29.6438 31.3559C29.6438 33.0501 30.5013 34.5528 31.8036 35.4542V38.9603L35.3894 36.3377H41.0703C43.8105 36.3377 46.0521 34.0961 46.0521 31.3559C46.0521 28.6157 43.8105 26.374 41.0703 26.374Z" fill="#DBCDFE"/>
<path d="M34.2387 32.1118C34.6561 32.1118 34.9946 31.7734 34.9946 31.356C34.9946 30.9385 34.6561 30.6001 34.2387 30.6001C33.8213 30.6001 33.4828 30.9385 33.4828 31.356C33.4828 31.7734 33.8213 32.1118 34.2387 32.1118Z" fill="white"/>
<path d="M37.8484 32.1118C38.2659 32.1118 38.6043 31.7734 38.6043 31.356C38.6043 30.9385 38.2659 30.6001 37.8484 30.6001C37.431 30.6001 37.0926 30.9385 37.0926 31.356C37.0926 31.7734 37.431 32.1118 37.8484 32.1118Z" fill="white"/>
<path d="M41.4582 32.1118C41.8756 32.1118 42.214 31.7734 42.214 31.356C42.214 30.9385 41.8756 30.6001 41.4582 30.6001C41.0407 30.6001 40.7023 30.9385 40.7023 31.356C40.7023 31.7734 41.0407 32.1118 41.4582 32.1118Z" fill="white"/>
<path d="M138.489 70.0142C137.495 68.3141 134.987 67.4605 132.563 70.2934C130.139 67.4595 127.63 68.3141 126.637 70.0142C124.188 74.2043 132.563 79.1343 132.563 79.1343C132.563 79.1343 140.939 74.2043 138.489 70.0142Z" fill="#DBCDFE"/>
<path d="M81.9202 17.3916H69.4596C68.7988 17.3916 68.263 17.9273 68.263 18.5882V26.1058C68.263 26.7667 68.7988 27.3024 69.4596 27.3024H81.9202C82.5811 27.3024 83.1168 26.7667 83.1168 26.1058V18.5882C83.1168 17.9273 82.5811 17.3916 81.9202 17.3916Z" fill="#DBCDFE"/>
<path d="M68.5023 17.7095L75.0059 24.0156C75.3788 24.3765 76.001 24.3765 76.373 24.0156L82.8765 17.7095" stroke="white" stroke-width="4" stroke-miterlimit="10"/>
<path d="M68.5023 26.9831L73.8392 22.8838" stroke="white" stroke-width="4" stroke-miterlimit="10"/>
<path d="M82.8775 26.9831L77.5406 22.8838" stroke="white" stroke-width="4" stroke-miterlimit="10"/>
<path d="M56.657 54.0605H41.891C41.2301 54.0605 40.6944 54.5963 40.6944 55.2571V64.7821C40.6944 65.4429 41.2301 65.9787 41.891 65.9787H56.657C57.3179 65.9787 57.8536 65.4429 57.8536 64.7821V55.2571C57.8536 54.5963 57.3179 54.0605 56.657 54.0605Z" fill="#DBCDFE"/>
<path d="M49.274 69.744L52.2824 65.6865H46.2655L49.274 69.744Z" fill="#DBCDFE"/>
<path d="M53.7882 61.5511H53.0463V59.5189L53.0532 59.1848L53.0652 58.8198C52.9416 58.9435 52.8558 59.0243 52.8079 59.0622L52.4041 59.3862L52.0461 58.9395L53.1779 58.0391H53.7882V61.5511Z" fill="white"/>
<path d="M48.2858 57.9214H45.8507C44.8156 57.9214 43.968 58.768 43.968 59.804C43.968 60.4442 44.2921 61.0126 44.7837 61.3526V62.6779L46.1389 61.6867H48.2858C49.3208 61.6867 50.1684 60.8401 50.1684 59.804C50.1684 58.769 49.3218 57.9214 48.2858 57.9214Z" fill="white"/>
</g>
<defs>
<clipPath id="clip0_325_376">
<rect width="181.971" height="140.692" fill="white"/>
</clipPath>
</defs>
</svg>
