<svg width="30" height="30" viewBox="0 0 30 30" fill="none" xmlns="http://www.w3.org/2000/svg">
<path d="M20 28.125H5C4.1715 28.124 3.37722 27.7945 2.79139 27.2086C2.20555 26.6228 1.87599 25.8285 1.875 25V5C1.87599 4.1715 2.20555 3.37722 2.79139 2.79139C3.37722 2.20555 4.1715 1.87599 5 1.875H14.6625C15.0787 1.87528 15.4907 1.95831 15.8745 2.11925C16.2583 2.2802 16.6062 2.51585 16.8981 2.8125L22.2344 8.27438C22.8068 8.8587 23.1266 9.64454 23.125 10.4625V15.1188C23.125 15.2845 23.0592 15.4435 22.9419 15.5607C22.8247 15.6779 22.6658 15.7438 22.5 15.7438C22.3342 15.7438 22.1753 15.6779 22.0581 15.5607C21.9408 15.4435 21.875 15.2845 21.875 15.1188V10.4625C21.8753 9.97185 21.6832 9.50065 21.34 9.15L16.0031 3.6875C15.8282 3.50938 15.6196 3.3679 15.3894 3.27132C15.1592 3.17474 14.9121 3.125 14.6625 3.125H5C4.50272 3.125 4.02581 3.32254 3.67417 3.67418C3.32254 4.02581 3.125 4.50272 3.125 5V25C3.125 25.4973 3.32254 25.9742 3.67417 26.3258C4.02581 26.6775 4.50272 26.875 5 26.875H20C20.2358 26.8759 20.4694 26.8303 20.6875 26.7406C20.8408 26.6776 21.0129 26.678 21.166 26.7418C21.319 26.8056 21.4404 26.9276 21.5034 27.0809C21.5665 27.2343 21.5661 27.4064 21.5023 27.5594C21.4384 27.7124 21.3165 27.8338 21.1631 27.8969C20.7941 28.0484 20.3989 28.1259 20 28.125Z" fill="black"/>
<path d="M22.2437 10.0001H18.125C17.2965 9.99911 16.5022 9.66955 15.9164 9.08371C15.3306 8.49787 15.001 7.7036 15 6.8751V2.69385C15 2.52809 15.0658 2.36912 15.1831 2.25191C15.3003 2.1347 15.4592 2.06885 15.625 2.06885C15.7908 2.06885 15.9497 2.1347 16.0669 2.25191C16.1842 2.36912 16.25 2.52809 16.25 2.69385V6.8751C16.25 7.37238 16.4475 7.84929 16.7992 8.20092C17.1508 8.55256 17.6277 8.7501 18.125 8.7501H22.2437C22.4095 8.7501 22.5685 8.81595 22.6857 8.93316C22.8029 9.05037 22.8687 9.20934 22.8687 9.3751C22.8687 9.54086 22.8029 9.69983 22.6857 9.81704C22.5685 9.93425 22.4095 10.0001 22.2437 10.0001Z" fill="black"/>
<path d="M21.25 28.0337C21.0035 28.034 20.7625 27.9611 20.5575 27.8243L18.55 26.4856C17.2648 25.631 16.211 24.4718 15.4826 23.1112C14.7541 21.7505 14.3736 20.2308 14.375 18.6874V17.6174C14.3762 17.3362 14.4718 17.0636 14.6464 16.8432C14.8211 16.6227 15.0647 16.4673 15.3381 16.4018C17.1943 15.8887 18.9601 15.0921 20.5731 14.0399C20.775 13.9099 21.0099 13.8408 21.25 13.8408C21.4901 13.8408 21.7251 13.9099 21.9269 14.0399C23.5398 15.0922 25.3056 15.8889 27.1619 16.4018C27.4354 16.4673 27.6789 16.6227 27.8536 16.8432C28.0282 17.0636 28.1238 17.3362 28.125 17.6174V18.6874C28.1268 20.2312 27.7465 21.7515 27.018 23.1126C26.2896 24.4737 25.2356 25.6333 23.95 26.4881L21.9431 27.8262C21.7377 27.9624 21.4965 28.0346 21.25 28.0337ZM21.25 15.0899C19.522 16.2172 17.6295 17.0695 15.64 17.6162L15.625 18.6874C15.6235 20.0254 15.9531 21.3429 16.5844 22.5225C17.2157 23.7021 18.1291 24.7072 19.2431 25.4481L21.25 26.7837L23.2569 25.4456C24.3706 24.7049 25.2838 23.7002 25.915 22.5211C26.5463 21.3419 26.8761 20.0249 26.875 18.6874V17.6174C24.8806 17.071 22.9831 16.2186 21.25 15.0906V15.0899Z" fill="black"/>
<path d="M20.625 22.5001C20.4593 22.5001 20.3003 22.4342 20.1831 22.317L18.9331 21.067C18.8193 20.9491 18.7563 20.7913 18.7577 20.6274C18.7591 20.4635 18.8249 20.3068 18.9407 20.1909C19.0566 20.075 19.2134 20.0093 19.3773 20.0078C19.5411 20.0064 19.699 20.0694 19.8169 20.1833L20.625 20.9914L22.6831 18.9333C22.801 18.8194 22.9589 18.7564 23.1228 18.7578C23.2866 18.7593 23.4434 18.825 23.5593 18.9409C23.6752 19.0568 23.7409 19.2135 23.7423 19.3774C23.7437 19.5413 23.6807 19.6991 23.5669 19.817L21.0669 22.317C20.9497 22.4342 20.7908 22.5001 20.625 22.5001Z" fill="black"/>
<path d="M11.25 8.125H6.25C6.08424 8.125 5.92527 8.05915 5.80806 7.94194C5.69085 7.82473 5.625 7.66576 5.625 7.5C5.625 7.33424 5.69085 7.17527 5.80806 7.05806C5.92527 6.94085 6.08424 6.875 6.25 6.875H11.25C11.4158 6.875 11.5747 6.94085 11.6919 7.05806C11.8092 7.17527 11.875 7.33424 11.875 7.5C11.875 7.66576 11.8092 7.82473 11.6919 7.94194C11.5747 8.05915 11.4158 8.125 11.25 8.125Z" fill="black"/>
<path d="M15 11.875H6.25C6.08424 11.875 5.92527 11.8092 5.80806 11.6919C5.69085 11.5747 5.625 11.4158 5.625 11.25C5.625 11.0842 5.69085 10.9253 5.80806 10.8081C5.92527 10.6908 6.08424 10.625 6.25 10.625H15C15.1658 10.625 15.3247 10.6908 15.4419 10.8081C15.5592 10.9253 15.625 11.0842 15.625 11.25C15.625 11.4158 15.5592 11.5747 15.4419 11.6919C15.3247 11.8092 15.1658 11.875 15 11.875Z" fill="black"/>
<path d="M16.25 15.625H6.25C6.08424 15.625 5.92527 15.5592 5.80806 15.4419C5.69085 15.3247 5.625 15.1658 5.625 15C5.625 14.8342 5.69085 14.6753 5.80806 14.5581C5.92527 14.4408 6.08424 14.375 6.25 14.375H16.25C16.4158 14.375 16.5747 14.4408 16.6919 14.5581C16.8092 14.6753 16.875 14.8342 16.875 15C16.875 15.1658 16.8092 15.3247 16.6919 15.4419C16.5747 15.5592 16.4158 15.625 16.25 15.625Z" fill="black"/>
<path d="M12.5 19.375H6.25C6.08424 19.375 5.92527 19.3092 5.80806 19.1919C5.69085 19.0747 5.625 18.9158 5.625 18.75C5.625 18.5842 5.69085 18.4253 5.80806 18.3081C5.92527 18.1908 6.08424 18.125 6.25 18.125H12.5C12.6658 18.125 12.8247 18.1908 12.9419 18.3081C13.0592 18.4253 13.125 18.5842 13.125 18.75C13.125 18.9158 13.0592 19.0747 12.9419 19.1919C12.8247 19.3092 12.6658 19.375 12.5 19.375Z" fill="black"/>
<path d="M12.5 23.125H6.25C6.08424 23.125 5.92527 23.0592 5.80806 22.9419C5.69085 22.8247 5.625 22.6658 5.625 22.5C5.625 22.3342 5.69085 22.1753 5.80806 22.0581C5.92527 21.9408 6.08424 21.875 6.25 21.875H12.5C12.6658 21.875 12.8247 21.9408 12.9419 22.0581C13.0592 22.1753 13.125 22.3342 13.125 22.5C13.125 22.6658 13.0592 22.8247 12.9419 22.9419C12.8247 23.0592 12.6658 23.125 12.5 23.125Z" fill="black"/>
</svg>
