<svg width="30" height="30" viewBox="0 0 30 30" fill="none" xmlns="http://www.w3.org/2000/svg">
<path d="M21.25 28.4375H3.75C3.17006 28.4368 2.61407 28.2061 2.20398 27.796C1.7939 27.3859 1.5632 26.8299 1.5625 26.25V3.75C1.5632 3.17006 1.7939 2.61407 2.20398 2.20398C2.61407 1.7939 3.17006 1.5632 3.75 1.5625H21.25C21.8299 1.5632 22.3859 1.7939 22.796 2.20398C23.2061 2.61407 23.4368 3.17006 23.4375 3.75V17.5C23.4375 17.7486 23.3387 17.9871 23.1629 18.1629C22.9871 18.3387 22.7486 18.4375 22.5 18.4375C22.2514 18.4375 22.0129 18.3387 21.8371 18.1629C21.6613 17.9871 21.5625 17.7486 21.5625 17.5V3.75C21.5615 3.66742 21.5283 3.5885 21.4699 3.53011C21.4115 3.47171 21.3326 3.43847 21.25 3.4375H3.75C3.66742 3.43847 3.5885 3.47171 3.53011 3.53011C3.47171 3.5885 3.43847 3.66742 3.4375 3.75V26.25C3.43847 26.3326 3.47171 26.4115 3.53011 26.4699C3.5885 26.5283 3.66742 26.5615 3.75 26.5625H21.25C21.4849 26.4691 21.747 26.471 21.9805 26.5677C22.214 26.6645 22.4006 26.8485 22.5006 27.0807C22.5493 27.1925 22.5752 27.3128 22.5769 27.4348C22.5785 27.5567 22.5559 27.6777 22.5102 27.7908C22.4646 27.9038 22.3969 28.0067 22.3111 28.0933C22.2253 28.1799 22.1231 28.2486 22.0105 28.2953C21.7685 28.391 21.5103 28.4393 21.25 28.4375Z" fill="black"/>
<path d="M18.125 8.4375H6.875C6.62636 8.4375 6.3879 8.33873 6.21209 8.16291C6.03627 7.9871 5.9375 7.74864 5.9375 7.5C5.9375 7.25136 6.03627 7.0129 6.21209 6.83709C6.3879 6.66127 6.62636 6.5625 6.875 6.5625H18.125C18.3736 6.5625 18.6121 6.66127 18.7879 6.83709C18.9637 7.0129 19.0625 7.25136 19.0625 7.5C19.0625 7.74864 18.9637 7.9871 18.7879 8.16291C18.6121 8.33873 18.3736 8.4375 18.125 8.4375Z" fill="black"/>
<path d="M18.125 13.4375H6.875C6.62636 13.4375 6.3879 13.3387 6.21209 13.1629C6.03627 12.9871 5.9375 12.7486 5.9375 12.5C5.9375 12.2514 6.03627 12.0129 6.21209 11.8371C6.3879 11.6613 6.62636 11.5625 6.875 11.5625H18.125C18.3736 11.5625 18.6121 11.6613 18.7879 11.8371C18.9637 12.0129 19.0625 12.2514 19.0625 12.5C19.0625 12.7486 18.9637 12.9871 18.7879 13.1629C18.6121 13.3387 18.3736 13.4375 18.125 13.4375Z" fill="black"/>
<path d="M15 18.4375H6.875C6.62636 18.4375 6.3879 18.3387 6.21209 18.1629C6.03627 17.9871 5.9375 17.7486 5.9375 17.5C5.9375 17.2514 6.03627 17.0129 6.21209 16.8371C6.3879 16.6613 6.62636 16.5625 6.875 16.5625H15C15.2486 16.5625 15.4871 16.6613 15.6629 16.8371C15.8387 17.0129 15.9375 17.2514 15.9375 17.5C15.9375 17.7486 15.8387 17.9871 15.6629 18.1629C15.4871 18.3387 15.2486 18.4375 15 18.4375Z" fill="black"/>
<path d="M13.75 23.4375H6.875C6.62636 23.4375 6.3879 23.3387 6.21209 23.1629C6.03627 22.9871 5.9375 22.7486 5.9375 22.5C5.9375 22.2514 6.03627 22.0129 6.21209 21.8371C6.3879 21.6613 6.62636 21.5625 6.875 21.5625H13.75C13.9986 21.5625 14.2371 21.6613 14.4129 21.8371C14.5887 22.0129 14.6875 22.2514 14.6875 22.5C14.6875 22.7486 14.5887 22.9871 14.4129 23.1629C14.2371 23.3387 13.9986 23.4375 13.75 23.4375Z" fill="black"/>
<path d="M22.5 28.4375C21.3257 28.4375 20.1777 28.0893 19.2013 27.4369C18.2249 26.7844 17.4639 25.8571 17.0145 24.7722C16.5651 23.6873 16.4475 22.4934 16.6766 21.3417C16.9057 20.1899 17.4712 19.1319 18.3016 18.3016C19.1319 17.4712 20.1899 16.9057 21.3417 16.6766C22.4934 16.4475 23.6873 16.5651 24.7722 17.0145C25.8571 17.4639 26.7844 18.2249 27.4369 19.2013C28.0893 20.1777 28.4375 21.3257 28.4375 22.5C28.4357 24.0742 27.8096 25.5834 26.6965 26.6965C25.5834 27.8096 24.0742 28.4357 22.5 28.4375ZM22.5 18.4375C21.6965 18.4375 20.9111 18.6758 20.243 19.1222C19.5749 19.5686 19.0542 20.203 18.7467 20.9454C18.4393 21.6877 18.3588 22.5045 18.5156 23.2926C18.6723 24.0806 19.0592 24.8045 19.6274 25.3726C20.1955 25.9408 20.9194 26.3277 21.7074 26.4844C22.4955 26.6412 23.3123 26.5607 24.0547 26.2533C24.797 25.9458 25.4315 25.4251 25.8778 24.757C26.3242 24.0889 26.5625 23.3035 26.5625 22.5C26.5613 21.4229 26.1328 20.3904 25.3712 19.6288C24.6097 18.8672 23.5771 18.4388 22.5 18.4375Z" fill="black"/>
<path d="M21.875 24.6874C21.7519 24.6876 21.6299 24.6634 21.5162 24.6163C21.4024 24.5691 21.2991 24.5 21.2122 24.4128L19.9622 23.1628C19.8746 23.0758 19.805 22.9725 19.7575 22.8586C19.71 22.7447 19.6854 22.6226 19.6852 22.4992C19.685 22.3758 19.7091 22.2536 19.7562 22.1396C19.8033 22.0255 19.8725 21.9219 19.9597 21.8347C20.047 21.7474 20.1506 21.6783 20.2646 21.6311C20.3787 21.584 20.5009 21.5599 20.6243 21.5601C20.7477 21.5603 20.8698 21.5849 20.9837 21.6325C21.0975 21.68 21.2009 21.7495 21.2878 21.8371L21.875 22.4242L23.7122 20.5871C23.8882 20.4124 24.1263 20.3145 24.3743 20.3149C24.6223 20.3154 24.86 20.4141 25.0354 20.5895C25.2108 20.7649 25.3095 21.0026 25.31 21.2506C25.3104 21.4987 25.2126 21.7367 25.0378 21.9128L22.5378 24.4128C22.4509 24.5 22.3476 24.5691 22.2338 24.6163C22.1201 24.6634 21.9981 24.6876 21.875 24.6874Z" fill="black"/>
</svg>
